<svg width="24" height="24" viewBox="0 0 24 24" fill="none" xmlns="http://www.w3.org/2000/svg">
<path fill-rule="evenodd" clip-rule="evenodd" d="M3.67788 2.53923C3.67727 2.5396 3.67667 2.53998 3.67607 2.54035L3.6734 2.54202L1.56564 0.434266C1.25322 0.121846 0.746685 0.121846 0.434266 0.434266C0.121846 0.746685 0.121846 1.25322 0.434266 1.56564L2.54202 3.6734C2.1912 4.23437 2.00058 4.88687 1.99995 5.55912V18.4408C2.00083 19.3845 2.3761 20.2892 3.04338 20.9565C3.71066 21.6238 4.61544 21.9991 5.55912 22H18.4408C19.113 21.9993 19.7655 21.8087 20.3265 21.4579L22.4343 23.5656C22.7467 23.8781 23.2532 23.8781 23.5656 23.5656C23.8781 23.2532 23.8781 22.7467 23.5656 22.4343L21.4579 20.3265C21.4588 20.325 21.4597 20.3235 21.4607 20.322L13.1665 12.0278L13.1628 12.0315L4.93491 3.80354C4.9367 3.8029 4.93849 3.80227 4.94028 3.80163L3.67788 2.53923ZM12.3045 8.90315L10.3984 6.99703C10.4989 6.91629 10.6107 6.85014 10.7303 6.80077C10.8951 6.73278 11.0717 6.69796 11.25 6.69828C11.518 6.69878 11.7799 6.77872 12.0025 6.928C12.2252 7.07728 12.3986 7.2892 12.5008 7.53699C12.603 7.78478 12.6295 8.05732 12.5769 8.32016C12.5341 8.53424 12.4403 8.73406 12.3045 8.90315ZM14.2982 10.8968L15.6666 9.52912C15.8285 9.37524 16.0433 9.28943 16.2666 9.28943C16.49 9.28943 16.7048 9.37524 16.8666 9.52912L20.3074 12.97V5.55912C20.3066 5.06498 20.1099 4.59133 19.7605 4.24193C19.4111 3.89252 18.9374 3.69583 18.4433 3.69495H18.4408H7.09634L5.40483 2.00343C5.45612 2.00117 5.50756 2 5.55912 1.99995H18.4408C19.3845 2.00083 20.2892 2.3761 20.9565 3.04338C21.6238 3.71066 21.9991 4.61544 22 5.55912V18.4408C21.9999 18.4923 21.9987 18.5438 21.9965 18.5951L14.2982 10.8968ZM3.69495 5.55912C3.69533 5.34434 3.73271 5.13343 3.80354 4.93491L12.0311 13.1625L11.3016 13.8916L9.09828 11.6916C9.01979 11.6123 8.92634 11.5493 8.82335 11.5064C8.72036 11.4634 8.60988 11.4413 8.49828 11.4413C8.38669 11.4413 8.27621 11.4634 8.17322 11.5064C8.07023 11.5493 7.97678 11.6123 7.89828 11.6916L3.69495 15.8983V5.55912Z" fill="currentColor"/>
</svg>
