<svg width="16" height="16" viewBox="0 0 16 16" fill="none" xmlns="http://www.w3.org/2000/svg">
<path d="M5.33333 1.33341C5.33333 1.1566 5.40357 0.987034 5.5286 0.86201C5.65362 0.736986 5.82319 0.666748 6 0.666748H10C10.1768 0.666748 10.3464 0.736986 10.4714 0.86201C10.5964 0.987034 10.6667 1.1566 10.6667 1.33341C10.6667 1.51023 10.5964 1.6798 10.4714 1.80482C10.3464 1.92984 10.1768 2.00008 10 2.00008H6C5.82319 2.00008 5.65362 1.92984 5.5286 1.80482C5.40357 1.6798 5.33333 1.51023 5.33333 1.33341ZM14 4.00008C14 4.17689 13.9298 4.34646 13.8047 4.47149C13.6797 4.59651 13.5101 4.66675 13.3333 4.66675V12.0001C13.3333 12.4378 13.2471 12.8713 13.0796 13.2757C12.9121 13.6801 12.6666 14.0476 12.357 14.3571C12.0475 14.6666 11.68 14.9122 11.2756 15.0797C10.8712 15.2472 10.4377 15.3334 10 15.3334H6C5.11595 15.3334 4.2681 14.9822 3.64298 14.3571C3.01786 13.732 2.66667 12.8841 2.66667 12.0001V4.66675C2.48986 4.66675 2.32029 4.59651 2.19526 4.47149C2.07024 4.34646 2 4.17689 2 4.00008C2 3.82327 2.07024 3.6537 2.19526 3.52868C2.32029 3.40365 2.48986 3.33341 2.66667 3.33341H13.3333C13.5101 3.33341 13.6797 3.40365 13.8047 3.52868C13.9298 3.6537 14 3.82327 14 4.00008ZM7.33333 7.33342C7.33333 7.1566 7.2631 6.98703 7.13807 6.86201C7.01305 6.73699 6.84348 6.66675 6.66667 6.66675C6.48986 6.66675 6.32029 6.73699 6.19526 6.86201C6.07024 6.98703 6 7.1566 6 7.33342V11.3334C6 11.5102 6.07024 11.6798 6.19526 11.8048C6.32029 11.9298 6.48986 12.0001 6.66667 12.0001C6.84348 12.0001 7.01305 11.9298 7.13807 11.8048C7.2631 11.6798 7.33333 11.5102 7.33333 11.3334V7.33342ZM10 7.33342C10 7.1566 9.92976 6.98703 9.80474 6.86201C9.67971 6.73699 9.51014 6.66675 9.33333 6.66675C9.15652 6.66675 8.98695 6.73699 8.86193 6.86201C8.73691 6.98703 8.66667 7.1566 8.66667 7.33342V11.3334C8.66667 11.5102 8.73691 11.6798 8.86193 11.8048C8.98695 11.9298 9.15652 12.0001 9.33333 12.0001C9.51014 12.0001 9.67971 11.9298 9.80474 11.8048C9.92976 11.6798 10 11.5102 10 11.3334V7.33342Z" fill="#0F0A0A"/>
</svg>
