<svg width="22" height="22" viewBox="0 0 22 22" fill="none" xmlns="http://www.w3.org/2000/svg">
<path fill-rule="evenodd" clip-rule="evenodd" d="M10.9999 3.1547C9.96969 3.1547 8.94953 3.35763 7.9977 3.75189C7.04587 4.14615 6.18102 4.72402 5.45252 5.45252C4.72402 6.18102 4.14615 7.04587 3.75189 7.9977C3.35763 8.94952 3.1547 9.96969 3.1547 10.9999C3.1547 12.0302 3.35763 13.0504 3.75189 14.0022C4.14615 14.954 4.72402 15.8189 5.45252 16.5474C6.18102 17.2759 7.04587 17.8537 7.9977 18.248C8.94953 18.6423 9.96969 18.8452 10.9999 18.8452C12.0302 18.8452 13.0504 18.6423 14.0022 18.248C14.954 17.8537 15.8189 17.2759 16.5474 16.5474C17.2759 15.8189 17.8537 14.954 18.248 14.0022C18.6423 13.0504 18.8452 12.0302 18.8452 10.9999C18.8452 9.9697 18.6423 8.94953 18.248 7.9977C17.8537 7.04588 17.2759 6.18102 16.5474 5.45252C15.8189 4.72403 14.954 4.14615 14.0022 3.75189C13.0504 3.35763 12.0302 3.1547 10.9999 3.1547ZM7.16856 1.75015C8.38326 1.247 9.68516 0.988037 10.9999 0.988037C12.3147 0.988038 13.6166 1.247 14.8313 1.75015C16.046 2.2533 17.1497 2.99077 18.0794 3.92046C19.0091 4.85015 19.7466 5.95386 20.2497 7.16856C20.7529 8.38326 21.0118 9.68517 21.0118 10.9999C21.0118 12.3147 20.7529 13.6166 20.2497 14.8313C19.7466 16.046 19.0091 17.1497 18.0794 18.0794C17.1497 19.0091 16.046 19.7466 14.8313 20.2497C13.6166 20.7529 12.3147 21.0118 10.9999 21.0118C9.68516 21.0118 8.38325 20.7529 7.16855 20.2497C5.95385 19.7466 4.85015 19.0091 3.92045 18.0794C2.99076 17.1497 2.25329 16.046 1.75015 14.8313C1.247 13.6166 0.988037 12.3147 0.988037 10.9999C0.988038 9.68516 1.247 8.38325 1.75015 7.16855C2.2533 5.95385 2.99077 4.85014 3.92046 3.92045C4.85015 2.99076 5.95386 2.25329 7.16856 1.75015Z" fill="#E5E4E8"/>
<path fill-rule="evenodd" clip-rule="evenodd" d="M9.91675 2.07137C9.91675 1.47306 10.4018 0.988037 11.0001 0.988037C12.3149 0.988037 13.6168 1.247 14.8315 1.75015C16.0462 2.25329 17.1499 2.99077 18.0796 3.92046C19.0093 4.85015 19.7467 5.95385 20.2499 7.16855C20.753 8.38325 21.012 9.68516 21.012 10.9999C21.012 11.5983 20.527 12.0833 19.9287 12.0833C19.3303 12.0833 18.8453 11.5983 18.8453 10.9999C18.8453 9.96969 18.6424 8.94953 18.2481 7.9977C17.8539 7.04587 17.276 6.18102 16.5475 5.45252C15.819 4.72402 14.9542 4.14615 14.0023 3.75189C13.0505 3.35763 12.0303 3.1547 11.0001 3.1547C10.4018 3.1547 9.91675 2.66968 9.91675 2.07137Z" fill="#0F0A0A"/>
</svg>
