<svg width="37" height="36" viewBox="0 0 37 36" fill="none" xmlns="http://www.w3.org/2000/svg">
<path fill-rule="evenodd" clip-rule="evenodd" d="M18.5 5.46254C16.8536 5.46254 15.2232 5.78683 13.7021 6.4169C12.181 7.04697 10.7989 7.97047 9.63468 9.13468C8.47047 10.2989 7.54697 11.681 6.9169 13.2021C6.28684 14.7232 5.96255 16.3536 5.96254 18C5.96254 19.6464 6.28683 21.2768 6.9169 22.7979C7.54697 24.319 8.47047 25.7011 9.63468 26.8653C10.7989 28.0295 12.181 28.953 13.7021 29.5831C15.2232 30.2132 16.8536 30.5375 18.5 30.5375C20.1464 30.5375 21.7768 30.2132 23.2979 29.5831C24.819 28.953 26.2011 28.0295 27.3653 26.8653C28.5295 25.7011 29.453 24.319 30.0831 22.7979C30.7132 21.2768 31.0375 19.6464 31.0375 18C31.0375 16.3536 30.7132 14.7232 30.0831 13.2021C29.453 11.681 28.5295 10.2989 27.3653 9.13469C26.2011 7.97047 24.819 7.04697 23.2979 6.4169C21.7768 5.78684 20.1465 5.46255 18.5 5.46254ZM12.3771 3.21792C14.3183 2.41385 16.3989 2 18.5 2C20.6012 2 22.6817 2.41385 24.6229 3.21793C26.5642 4.02201 28.328 5.20056 29.8137 6.6863C31.2995 8.17204 32.478 9.93586 33.2821 11.8771C34.0862 13.8183 34.5 15.8989 34.5 18C34.5 20.1012 34.0861 22.1817 33.2821 24.1229C32.478 26.0641 31.2994 27.828 29.8137 29.3137C28.328 30.7994 26.5641 31.978 24.6229 32.7821C22.6817 33.5862 20.6011 34 18.5 34C16.3988 34 14.3183 33.5861 12.3771 32.7821C10.4359 31.978 8.67203 30.7994 7.18629 29.3137C5.70055 27.828 4.522 26.0641 3.71793 24.1229C2.91385 22.1817 2.5 20.1011 2.5 18C2.5 15.8988 2.91385 13.8183 3.71793 11.8771C4.52201 9.93585 5.70056 8.17202 7.1863 6.68629C8.67203 5.20055 10.4359 4.022 12.3771 3.21792Z" fill="#E5E4E8"/>
<path fill-rule="evenodd" clip-rule="evenodd" d="M16.7687 3.73127C16.7687 2.77512 17.5439 2 18.5 2C20.6012 2 22.6817 2.41385 24.6229 3.21793C26.5642 4.022 28.328 5.20056 29.8137 6.68629C31.2995 8.17203 32.478 9.93586 33.2821 11.8771C34.0862 13.8183 34.5 15.8989 34.5 18C34.5 18.9562 33.7249 19.7313 32.7687 19.7313C31.8126 19.7313 31.0375 18.9562 31.0375 18C31.0375 16.3536 30.7132 14.7232 30.0831 13.2021C29.453 11.681 28.5295 10.2989 27.3653 9.13468C26.2011 7.97047 24.819 7.04697 23.2979 6.4169C21.7768 5.78684 20.1465 5.46254 18.5 5.46254C17.5439 5.46254 16.7687 4.68743 16.7687 3.73127Z" fill="#0F0A0A"/>
</svg>
